<?xml version="1.0" standalone="no"?>
<!DOCTYPE svg PUBLIC "-//W3C//DTD SVG 20010904//EN"
 "http://www.w3.org/TR/2001/REC-SVG-20010904/DTD/svg10.dtd">
<svg version="1.0" xmlns="http://www.w3.org/2000/svg"
 width="260.000000pt" height="260.000000pt" viewBox="0 0 260.000000 260.000000"
 preserveAspectRatio="xMidYMid meet">
<metadata>
Created by potrace 1.14, written by Peter Selinger 2001-2017
</metadata>
<g transform="translate(0.000000,260.000000) scale(0.100000,-0.100000)"
fill="#000000" stroke="none">
<path d="M1260 2528 c0 -5 -4 -6 -10 -3 -5 3 -10 -1 -10 -10 0 -9 -4 -14 -9
-10 -6 3 -20 -5 -32 -17 -12 -13 -19 -17 -14 -10 6 11 3 11 -13 1 -12 -7 -19
-17 -16 -21 3 -4 -2 -5 -10 -2 -10 4 -16 1 -16 -9 0 -9 -7 -14 -17 -13 -21 3
-43 -15 -35 -29 3 -5 -3 -3 -13 5 -10 8 -16 10 -12 3 5 -7 -2 -14 -15 -19 -13
-4 -28 -14 -35 -23 -7 -9 -13 -12 -13 -8 0 4 -10 3 -21 -4 -18 -9 -19 -13 -8
-20 9 -6 4 -7 -15 -3 -21 5 -27 4 -22 -5 4 -6 1 -11 -8 -11 -9 0 -16 -5 -16
-11 0 -5 -4 -7 -10 -4 -5 3 -10 1 -10 -5 0 -6 -4 -9 -8 -6 -5 3 -18 -4 -30
-14 -24 -23 -37 -26 -26 -7 4 7 3 9 -2 4 -5 -5 -9 -13 -9 -19 0 -6 -9 -12 -20
-14 -11 -2 -21 -8 -23 -13 -2 -6 -13 -11 -23 -11 -11 0 -18 -4 -15 -9 7 -11
-22 -23 -35 -15 -5 3 -9 -2 -9 -11 0 -11 -5 -15 -14 -12 -8 3 -17 -1 -20 -9
-3 -9 -10 -13 -15 -10 -5 3 -11 -1 -15 -9 -3 -8 -13 -15 -23 -15 -9 0 -30 -12
-46 -27 -24 -23 -27 -25 -22 -8 6 20 6 20 -7 0 -7 -11 -20 -21 -28 -23 -8 -2
-21 -10 -27 -19 -7 -9 -13 -13 -13 -8 0 4 -8 2 -17 -6 -10 -8 -30 -21 -45 -29
-16 -7 -28 -17 -28 -21 0 -4 -9 -6 -20 -4 -11 2 -19 1 -17 -3 1 -4 -1 -7 -4
-7 -15 0 -38 -28 -32 -39 4 -6 -1 -5 -10 3 -14 11 -17 11 -18 0 0 -8 -4 -5 -9
6 -8 19 -9 19 -9 -3 -1 -15 -5 -21 -13 -16 -7 5 -9 2 -5 -8 3 -9 3 -19 0 -22
-4 -4 -8 -58 -9 -122 -2 -64 -5 -122 -8 -129 -3 -8 0 -16 7 -19 7 -2 7 -5 2
-5 -7 -1 -9 -16 -7 -36 3 -21 -1 -42 -9 -52 -10 -12 -10 -15 -2 -9 17 9 17 -6
1 -23 -10 -11 -10 -13 -1 -7 8 5 13 1 13 -9 0 -9 -4 -14 -9 -11 -10 7 -9 -13
2 -31 4 -6 1 -14 -5 -16 -10 -4 -10 -6 0 -6 6 -1 12 -6 12 -12 0 -5 -4 -8 -8
-5 -11 6 -9 -65 1 -81 5 -8 3 -13 -5 -13 -10 0 -10 -2 1 -9 10 -6 10 -10 1
-16 -9 -6 -9 -10 1 -17 11 -7 11 -11 2 -15 -7 -2 -13 -9 -13 -14 0 -6 6 -7 12
-3 10 6 10 5 1 -7 -10 -12 -10 -18 -1 -27 7 -7 8 -12 2 -12 -5 0 -10 -15 -10
-34 0 -19 4 -32 8 -30 4 3 8 0 8 -5 0 -6 -3 -11 -7 -11 -5 0 -8 -15 -8 -34 0
-19 3 -32 7 -30 4 3 8 0 8 -5 0 -6 -3 -11 -7 -11 -5 0 -8 -11 -8 -24 0 -13 3
-22 7 -19 5 2 8 -1 8 -6 0 -6 -4 -11 -9 -11 -11 0 -9 -19 3 -39 5 -8 3 -17 -5
-22 -12 -8 -12 -11 1 -19 8 -5 10 -10 5 -10 -6 0 -11 -13 -11 -30 -1 -20 2
-27 10 -23 8 5 8 3 0 -8 -6 -8 -11 -36 -12 -63 0 -34 2 -45 9 -35 5 9 9 9 9 2
0 -6 -4 -14 -9 -18 -6 -3 -9 -15 -8 -28 1 -24 21 -50 31 -40 3 4 6 -1 6 -11 0
-9 5 -14 10 -11 6 3 13 -1 16 -9 3 -9 17 -16 31 -16 13 0 21 -4 18 -10 -3 -6
3 -10 14 -10 11 0 23 -5 27 -12 5 -7 3 -8 -6 -3 -8 5 -11 4 -6 -3 4 -6 13 -9
21 -5 8 3 15 0 15 -7 0 -6 4 -8 10 -5 5 3 10 2 10 -3 0 -8 34 -23 48 -21 2 0
12 -9 21 -20 10 -11 21 -18 24 -14 4 3 9 -1 13 -10 3 -9 11 -14 18 -11 7 3 19
-2 26 -11 7 -8 21 -15 31 -15 11 0 19 -7 19 -15 0 -8 6 -12 13 -10 6 3 25 -6
41 -20 32 -28 41 -31 30 -12 -4 6 5 0 21 -15 15 -16 36 -28 46 -28 11 0 19 -4
19 -10 0 -5 7 -10 15 -10 8 0 15 -5 15 -11 0 -5 4 -8 9 -4 5 3 12 1 16 -5 4
-6 11 -7 17 -4 6 4 8 3 5 -3 -4 -6 4 -15 18 -21 18 -8 25 -8 29 1 2 7 5 1 5
-12 1 -17 5 -21 16 -17 9 3 18 -1 21 -9 4 -8 15 -15 25 -15 10 0 19 -4 19 -10
0 -5 7 -10 15 -10 8 0 15 -5 15 -12 0 -6 3 -8 7 -5 3 4 12 2 20 -4 7 -6 13 -8
13 -5 0 4 6 1 14 -6 8 -7 11 -17 8 -22 -3 -5 0 -6 6 -3 14 9 43 -3 36 -14 -3
-5 -2 -9 3 -8 18 3 34 -1 29 -9 -2 -4 5 -9 17 -9 12 -1 23 -7 25 -13 2 -5 10
-10 18 -10 8 0 14 -5 14 -12 0 -6 3 -8 7 -5 3 4 17 0 31 -9 17 -11 22 -12 16
-3 -6 12 -5 12 9 0 9 -7 17 -9 17 -4 0 5 10 10 22 10 13 1 28 9 34 17 6 9 14
13 17 9 4 -3 16 2 27 12 11 10 20 14 20 9 0 -5 7 0 15 10 8 11 15 16 15 10 0
-5 4 -4 8 2 9 14 139 86 147 82 4 -2 11 5 16 15 6 9 17 17 25 17 8 0 24 9 36
19 11 11 27 17 35 14 7 -3 13 -2 11 3 -2 5 0 9 3 9 4 0 16 9 28 19 12 11 21
15 21 11 0 -4 8 -1 18 8 10 10 22 14 25 10 4 -3 7 -1 7 5 0 7 5 12 11 12 6 0
18 7 26 16 13 13 17 13 24 2 7 -10 9 -9 9 5 0 15 11 22 33 18 5 -1 6 2 3 7 -2
4 4 14 16 21 16 10 19 10 13 -1 -3 -7 2 -3 13 9 22 25 38 31 26 10 -5 -8 -3
-8 9 2 9 7 14 17 11 22 -3 5 2 6 10 3 9 -3 16 -1 16 6 0 6 4 9 9 5 5 -3 12 -1
16 5 4 6 11 7 17 4 7 -5 9 -1 5 9 -3 9 -3 16 1 15 15 -5 71 25 65 35 -3 5 -2
7 4 4 9 -6 93 30 93 40 0 2 -5 1 -12 -3 -7 -4 -8 -3 -4 4 4 6 13 9 21 5 8 -3
15 0 15 7 0 6 4 9 9 6 5 -3 14 1 21 10 7 8 19 13 27 10 8 -3 12 -2 9 2 -3 5 5
17 17 27 20 17 20 20 5 23 -10 2 -18 8 -18 13 0 6 4 8 9 4 5 -3 12 -1 16 5 3
5 2 10 -3 10 -13 0 -11 30 2 30 6 0 2 7 -8 15 -11 8 -14 15 -7 15 7 0 9 5 6
10 -3 6 0 10 7 10 10 0 10 2 -1 9 -10 6 -10 10 -1 16 8 5 7 12 -5 25 -11 12
-13 20 -6 25 8 4 8 12 0 27 -6 12 -7 18 -1 14 14 -8 24 24 12 39 -5 6 -6 16
-2 20 4 5 -1 5 -11 2 -11 -4 -16 -3 -12 3 3 6 13 10 21 10 8 0 12 5 9 10 -4 6
-10 8 -14 6 -4 -3 -8 2 -8 10 0 8 6 13 13 10 8 -3 11 0 7 9 -3 8 -10 12 -17 8
-7 -4 -7 -2 1 7 9 9 9 19 2 33 -7 12 -7 17 -1 13 5 -3 13 1 16 10 4 9 2 13 -5
8 -8 -5 -10 3 -7 25 3 18 1 34 -3 37 -5 2 -5 15 -1 27 9 26 7 64 -3 90 -5 12
-2 17 10 17 9 0 13 5 10 10 -4 6 -10 8 -14 6 -4 -3 -8 1 -8 9 0 8 4 12 9 9 4
-3 8 0 8 5 0 6 -6 11 -12 11 -8 0 -6 5 4 11 9 5 15 16 12 24 -4 8 -9 13 -13
10 -5 -2 -6 12 -4 33 2 20 4 44 5 52 0 8 6 21 12 29 8 11 8 13 -1 7 -7 -4 -13
-3 -13 3 0 5 5 13 11 16 7 5 4 14 -8 28 -10 11 -13 17 -7 14 15 -8 27 20 13
29 -6 4 -6 11 2 20 9 11 8 14 -5 14 -9 0 -16 5 -16 11 0 5 4 8 9 4 5 -3 12 -1
16 5 3 5 1 10 -5 10 -8 0 -7 6 1 21 8 15 8 19 0 15 -9 -6 -10 19 -1 44 6 14 5
68 -2 93 -4 18 -3 27 5 27 7 0 6 4 -3 10 -8 5 -10 10 -5 10 6 0 -1 10 -15 21
-14 11 -18 17 -10 13 11 -5 12 -4 5 4 -6 7 -27 13 -47 14 -26 2 -34 7 -30 18
3 8 2 12 -3 8 -4 -4 -14 0 -22 8 -8 8 -19 12 -24 9 -5 -4 -9 -1 -9 5 0 7 -7
10 -14 7 -11 -4 -13 -1 -9 10 5 12 2 15 -9 10 -10 -3 -19 0 -22 9 -3 8 -15 14
-27 14 -14 0 -19 5 -16 14 4 10 1 13 -10 9 -8 -3 -18 -2 -22 3 -13 19 -54 49
-46 34 6 -11 3 -10 -12 3 -11 9 -25 17 -31 17 -7 0 -12 5 -12 10 0 6 -9 10
-20 10 -11 0 -20 7 -20 15 0 8 -6 12 -14 9 -8 -3 -17 0 -22 7 -5 8 -3 10 7 4
8 -5 11 -4 6 1 -5 5 -16 9 -25 9 -9 0 -16 6 -14 13 1 6 -1 11 -5 11 -23 -4
-43 2 -38 11 5 8 -22 15 -47 11 -4 0 -4 7 -1 16 4 10 2 14 -4 10 -6 -4 -16 0
-23 8 -7 8 -20 15 -30 15 -10 0 -21 7 -24 16 -3 9 -12 14 -20 11 -8 -3 -24 5
-36 18 -13 13 -26 23 -31 22 -4 -1 -15 7 -24 18 -9 11 -13 14 -10 7 6 -11 3
-11 -13 -1 -12 7 -19 16 -16 20 2 5 -5 6 -16 4 -13 -2 -20 1 -20 11 0 8 -4 13
-9 9 -5 -3 -16 1 -23 9 -21 20 -75 46 -82 39 -3 -4 -6 1 -6 10 0 15 -11 22
-32 18 -5 0 -8 7 -8 17 0 13 -2 14 -9 4 -7 -11 -9 -10 -15 3 -3 9 -11 13 -16
10 -6 -4 -9 -1 -8 6 2 6 -7 12 -19 14 -13 1 -23 -2 -23 -7z"/>
<path d="M2355 1440 c-3 -5 -1 -10 4 -10 6 0 11 5 11 10 0 6 -2 10 -4 10 -3 0
-8 -4 -11 -10z"/>
</g>
</svg>
